<svg width="79" height="76" viewBox="0 0 79 76" fill="none" xmlns="http://www.w3.org/2000/svg">
<path fill-rule="evenodd" clip-rule="evenodd" d="M44.1189 6.68928C45.3599 6.21128 46.6273 6.16172 47.8808 6.47124C48.3982 6.59847 48.8598 7.13179 48.63 7.67384C47.8799 9.44529 48.9424 10.7196 49.7462 12.0045C54.8596 20.178 61.1865 27.3345 68.0523 34.023C70.5577 36.4644 73.1563 38.808 75.6981 41.2105C76.043 41.5368 76.5318 41.7646 76.2911 42.4885C76.051 43.2108 75.4626 42.9045 75.1164 43.1258C72.4891 44.8068 70.7246 43.005 68.8335 41.6644C59.2692 34.8855 51.7142 26.2399 45.667 16.1981C44.5605 14.3606 43.6401 12.4246 43.1694 10.3159C42.8701 8.97236 42.8832 7.64957 44.1189 6.68928Z" fill="#29A2BA"/>
<path fill-rule="evenodd" clip-rule="evenodd" d="M31.0081 36.7489C30.8893 35.7362 31.1754 35.1486 32.113 34.9893C33.034 34.8325 33.6393 35.0085 34.1826 35.9165C35.3447 37.8584 37.3209 38.9214 39.1725 40.0518C45.6912 44.0341 52.4833 47.5154 59.2218 51.0945C59.7521 51.3764 60.314 51.6333 60.355 52.4157C60.4062 53.3677 59.5164 52.9629 59.1753 53.3357C58.0518 54.5628 56.8152 53.9977 55.6212 53.5072C49.422 50.959 43.1553 48.552 37.5256 44.7962C35.6789 43.564 33.8708 42.2853 32.191 40.8187C31.448 40.1697 31.4947 38.954 30.3282 38.5583C29.8532 38.3975 29.553 37.5241 29.6789 36.7914C29.7443 36.4106 29.7697 35.9494 30.1917 35.859C30.687 35.7527 30.6723 36.3322 31.0081 36.7489Z" fill="#29A2BA"/>
<path fill-rule="evenodd" clip-rule="evenodd" d="M19.5782 60.2161C21.1974 59.3982 22.467 59.4932 23.9566 60.1137C26.8263 61.3093 29.9437 61.3252 33.0099 61.3939C37.0629 61.4858 41.1047 61.306 45.1334 60.7928C46.154 60.6622 47.2033 60.7186 48.2369 60.7567C48.6304 60.771 49.1138 60.8356 49.1038 61.4664C49.0963 61.9803 48.7804 62.1109 48.387 62.3599C45.3201 64.3023 41.7863 64.1018 38.4285 64.5117C33.8512 65.0703 29.2303 65.163 24.6404 64.3911C22.9559 64.1075 21.3344 63.6242 19.7878 62.8961C19.1249 62.5836 18.5623 62.1874 18.5294 61.3315C18.494 60.393 19.1714 60.2945 19.5782 60.2161Z" fill="#29A2BA"/>
</svg>
