<svg width="105" height="35" viewBox="0 0 105 35" fill="none" xmlns="http://www.w3.org/2000/svg">
<path fill-rule="evenodd" clip-rule="evenodd" d="M1.06393 34.3385H6.29758V13.2653H1.06393V34.3385Z" fill="#112D35"/>
<path fill-rule="evenodd" clip-rule="evenodd" d="M3.68089 0C1.64794 0 0 1.64827 0 3.68122C0 5.71416 1.64794 7.3621 3.68089 7.3621C5.71383 7.3621 7.36178 5.71416 7.36178 3.68122C7.36178 1.64827 5.71383 0 3.68089 0Z" fill="#112D35"/>
<path fill-rule="evenodd" clip-rule="evenodd" d="M23.8865 12.8252C17.9552 12.8252 13.1297 17.6506 13.1297 23.582V34.3387H18.3634V23.582C18.3634 20.5366 20.8412 18.0588 23.8865 18.0588C26.9318 18.0588 29.4097 20.5366 29.4097 23.582V34.3387H34.6433V23.582C34.6433 17.6506 29.8179 12.8252 23.8865 12.8252Z" fill="#112D35"/>
<path fill-rule="evenodd" clip-rule="evenodd" d="M58.7757 6.2832H53.542V24.6994C53.542 30.0145 57.866 34.3388 63.1811 34.3388H67.3902V29.1052H63.1811C60.752 29.1052 58.7757 27.1288 58.7757 24.6994V18.4992H65.7547V13.2655H58.7757V6.2832Z" fill="#112D35"/>
<path fill-rule="evenodd" clip-rule="evenodd" d="M84.4515 29.1131C81.4935 30.1975 78.2045 28.6728 77.1201 25.7145C76.0358 22.7562 77.5604 19.4675 80.5187 18.3832C83.4771 17.2988 86.7661 18.8231 87.8504 21.7818C88.9348 24.7401 87.4098 28.0288 84.4515 29.1131ZM104.582 15.6489C103.882 13.7393 101.766 12.7586 99.8567 13.459C98.8198 13.8387 98.0603 14.6378 97.6913 15.593L97.6893 15.5878C97.009 17.3476 94.1943 19.8705 90.1859 15.925L90.1876 15.9299C87.2554 13.0501 82.816 11.9353 78.7072 13.4413C73.0242 15.5246 70.0953 21.8426 72.1783 27.5257C74.2613 33.2091 80.5796 36.138 86.263 34.055C90.3714 32.549 93.0389 28.8295 93.4158 24.7368L93.4177 24.7417C93.9267 19.1404 97.705 19.2467 99.3618 20.1499L99.3599 20.145C100.258 20.6356 101.355 20.754 102.391 20.3743C104.301 19.6743 105.282 17.5585 104.582 15.6489Z" fill="#112D35"/>
<path fill-rule="evenodd" clip-rule="evenodd" d="M41.4755 34.3385H46.7092V13.2653H41.4755V34.3385Z" fill="#112D35"/>
<path fill-rule="evenodd" clip-rule="evenodd" d="M44.0923 0C42.0594 0 40.4114 1.64827 40.4114 3.68122C40.4114 5.71416 42.0594 7.3621 44.0923 7.3621C46.1253 7.3621 47.7732 5.71416 47.7732 3.68122C47.7732 1.64827 46.1253 0 44.0923 0Z" fill="#112D35"/>
</svg>
