<svg width="91" height="14" viewBox="0 0 91 14" fill="none" xmlns="http://www.w3.org/2000/svg">
<g clip-path="url(#clip0_7_454)">
<path d="M5.78351 0L3.99782 4.41147L0 5.11763L2.88909 8.55103L2.2068 13.4L5.78351 11.1111L9.35956 13.4L8.6766 8.55103L11.5684 5.11763L7.57054 4.41147L5.78351 0Z" fill="#0096AD"/>
<path d="M25.6053 0L23.8163 4.41147L19.8184 5.11763L22.7102 8.55103L22.0279 13.4L25.6053 11.1111L29.1807 13.4L28.4984 8.55103L31.3901 5.11763L27.3923 4.41147L25.6053 0Z" fill="#0096AD"/>
<path d="M45.428 0L43.6383 4.41147L39.6405 5.11763L42.5322 8.55103L41.8499 13.4L45.428 11.1111L49.0033 13.4L48.3211 8.55103L51.2121 5.11763L47.2143 4.41147L45.428 0Z" fill="#0096AD"/>
<path d="M65.246 0L63.4603 4.41147L59.4625 5.11763L62.3542 8.55103L61.6746 13.4L65.2487 11.1111L68.824 13.4L68.1377 8.55103L71.0295 5.11763L67.0317 4.41147L65.246 0Z" fill="#0096AD"/>
<path d="M85.0626 0L83.277 4.41147L79.2791 5.11763L82.1716 8.55103L81.4893 13.4L85.0633 11.1111L88.6387 13.4L87.9564 8.55103L90.8455 5.11763L86.8477 4.41147L85.0626 0Z" fill="#0096AD"/>
</g>
<defs>
<clipPath id="clip0_7_454">
<rect width="90.6192" height="13.4" fill="white"/>
</clipPath>
</defs>
</svg>
